<mxfile host="65bd71144e">
    <diagram id="6Yv4ptQ4MMwM81YjcOXj" name="Page-1">
        <mxGraphModel dx="892" dy="452" grid="1" gridSize="10" guides="1" tooltips="1" connect="1" arrows="1" fold="1" page="1" pageScale="1" pageWidth="850" pageHeight="1100" math="0" shadow="0">
            <root>
                <mxCell id="0"/>
                <mxCell id="1" parent="0"/>
                <mxCell id="47" value="" style="verticalLabelPosition=bottom;verticalAlign=top;html=1;shape=mxgraph.basic.rect;fillColor2=none;strokeWidth=1;size=20;indent=5;" parent="1" vertex="1">
                    <mxGeometry x="345" y="100" width="355" height="320" as="geometry"/>
                </mxCell>
                <mxCell id="46" value="" style="html=1;dashed=0;whitespace=wrap;" parent="1" vertex="1">
                    <mxGeometry x="370" y="100" width="310" height="280" as="geometry"/>
                </mxCell>
                <mxCell id="45" value="" style="html=1;dashed=0;whitespace=wrap;" parent="1" vertex="1">
                    <mxGeometry x="330" y="85" width="370" height="295" as="geometry"/>
                </mxCell>
                <mxCell id="28" value="" style="html=1;dashed=0;whitespace=wrap;" parent="1" vertex="1">
                    <mxGeometry x="310" y="70" width="950" height="570" as="geometry"/>
                </mxCell>
                <mxCell id="29" value="NGƯỜI BÁN" style="image;html=1;image=img/lib/clip_art/people/Suit_Man_128x128.png" parent="1" vertex="1">
                    <mxGeometry x="200" y="480" width="80" height="80" as="geometry"/>
                </mxCell>
                <mxCell id="30" value="USER" style="image;html=1;image=img/lib/clip_art/people/Worker_Man_128x128.png" parent="1" vertex="1">
                    <mxGeometry x="200" y="150" width="80" height="80" as="geometry"/>
                </mxCell>
                <mxCell id="58" style="edgeStyle=none;html=1;exitX=1;exitY=0.5;exitDx=0;exitDy=0;exitPerimeter=0;entryX=0;entryY=0.5;entryDx=0;entryDy=0;" parent="1" source="32" target="57" edge="1">
                    <mxGeometry relative="1" as="geometry"/>
                </mxCell>
                <mxCell id="32" value="register" style="html=1;dashed=0;whitespace=wrap;shape=mxgraph.dfd.start" parent="1" vertex="1">
                    <mxGeometry x="360" y="180" width="80" height="30" as="geometry"/>
                </mxCell>
                <mxCell id="33" value="mua hàng" style="html=1;dashed=0;whitespace=wrap;shape=mxgraph.dfd.start" parent="1" vertex="1">
                    <mxGeometry x="780" y="210" width="80" height="30" as="geometry"/>
                </mxCell>
                <mxCell id="34" value="xem lượt mua&lt;br&gt;" style="html=1;dashed=0;whitespace=wrap;shape=mxgraph.dfd.start" parent="1" vertex="1">
                    <mxGeometry x="790" y="85" width="80" height="40" as="geometry"/>
                </mxCell>
                <mxCell id="35" value="xem lượt bán" style="html=1;dashed=0;whitespace=wrap;shape=mxgraph.dfd.start" parent="1" vertex="1">
                    <mxGeometry x="717.5" y="160" width="80" height="30" as="geometry"/>
                </mxCell>
                <mxCell id="37" value="kiểm tra đơn hàng" style="html=1;dashed=0;whitespace=wrap;shape=mxgraph.dfd.start" parent="1" vertex="1">
                    <mxGeometry x="360" y="490" width="140" height="30" as="geometry"/>
                </mxCell>
                <mxCell id="38" value="số lượng mặt hàng" style="html=1;dashed=0;whitespace=wrap;shape=mxgraph.dfd.start" parent="1" vertex="1">
                    <mxGeometry x="340" y="580" width="125" height="30" as="geometry"/>
                </mxCell>
                <mxCell id="55" style="edgeStyle=none;html=1;exitX=1;exitY=0.5;exitDx=0;exitDy=0;exitPerimeter=0;entryX=0.011;entryY=0.617;entryDx=0;entryDy=0;entryPerimeter=0;" parent="1" source="39" target="54" edge="1">
                    <mxGeometry relative="1" as="geometry"/>
                </mxCell>
                <mxCell id="39" value="login" style="html=1;dashed=0;whitespace=wrap;shape=mxgraph.dfd.start" parent="1" vertex="1">
                    <mxGeometry x="385" y="110" width="80" height="30" as="geometry"/>
                </mxCell>
                <mxCell id="42" value="xóa hàng" style="html=1;dashed=0;whitespace=wrap;shape=mxgraph.dfd.start" parent="1" vertex="1">
                    <mxGeometry x="830" y="150" width="80" height="30" as="geometry"/>
                </mxCell>
                <mxCell id="43" value="feedback" style="html=1;dashed=0;whitespace=wrap;shape=mxgraph.dfd.start" parent="1" vertex="1">
                    <mxGeometry x="1060" y="175" width="80" height="30" as="geometry"/>
                </mxCell>
                <mxCell id="44" value="xem hàng đã mua" style="html=1;dashed=0;whitespace=wrap;shape=mxgraph.dfd.start" parent="1" vertex="1">
                    <mxGeometry x="920" y="80" width="140" height="30" as="geometry"/>
                </mxCell>
                <mxCell id="48" value="xem hàng gần đây" style="html=1;dashed=0;whitespace=wrap;shape=mxgraph.dfd.start" parent="1" vertex="1">
                    <mxGeometry x="797.5" y="265" width="140" height="30" as="geometry"/>
                </mxCell>
                <mxCell id="49" value="mặt hàng giống nhau" style="html=1;dashed=0;whitespace=wrap;shape=mxgraph.dfd.start" parent="1" vertex="1">
                    <mxGeometry x="1020" y="240" width="135" height="32.5" as="geometry"/>
                </mxCell>
                <mxCell id="50" value="Chỉnh sửa thông tin" style="html=1;dashed=0;whitespace=wrap;shape=mxgraph.dfd.start" parent="1" vertex="1">
                    <mxGeometry x="900" y="190" width="135" height="30" as="geometry"/>
                </mxCell>
                <mxCell id="51" value="tìm kiếm mặt hàng" style="html=1;dashed=0;whitespace=wrap;shape=mxgraph.dfd.start" parent="1" vertex="1">
                    <mxGeometry x="930" y="300" width="145" height="30" as="geometry"/>
                </mxCell>
                <mxCell id="52" value="" style="endArrow=none;html=1;entryX=0.009;entryY=0.575;entryDx=0;entryDy=0;entryPerimeter=0;exitX=1;exitY=0.586;exitDx=0;exitDy=0;exitPerimeter=0;" parent="1" source="28" target="28" edge="1">
                    <mxGeometry width="50" height="50" relative="1" as="geometry">
                        <mxPoint x="600" y="490" as="sourcePoint"/>
                        <mxPoint x="650" y="440" as="targetPoint"/>
                    </mxGeometry>
                </mxCell>
                <mxCell id="53" value="trả lời feedback của user" style="html=1;dashed=0;whitespace=wrap;shape=mxgraph.dfd.start" parent="1" vertex="1">
                    <mxGeometry x="370" y="430" width="150" height="30" as="geometry"/>
                </mxCell>
                <mxCell id="54" value="Username:&lt;br&gt;number phone&lt;br&gt;or gmail&amp;nbsp;&lt;br&gt;Password:" style="rounded=1;whiteSpace=wrap;html=1;" parent="1" vertex="1">
                    <mxGeometry x="510" y="80" width="120" height="60" as="geometry"/>
                </mxCell>
                <mxCell id="57" value="- username&lt;br&gt;-email(ko bắt buộc)&lt;br&gt;-password(tối thiểu 6 kí tự và 1 số)&lt;br&gt;-number phone(10 đến 11 số)&lt;br&gt;-" style="rounded=1;whiteSpace=wrap;html=1;" parent="1" vertex="1">
                    <mxGeometry x="490" y="150" width="170" height="90" as="geometry"/>
                </mxCell>
                <mxCell id="59" value="(*)LƯU Ý" style="ellipse;whiteSpace=wrap;html=1;" parent="1" vertex="1">
                    <mxGeometry x="310" y="310" width="120" height="90" as="geometry"/>
                </mxCell>
            </root>
        </mxGraphModel>
    </diagram>
</mxfile>